<?xml version="1.0" encoding="UTF-8"?>
<svg xmlns="http://www.w3.org/2000/svg" xmlns:xlink="http://www.w3.org/1999/xlink" width="120px" height="42px" viewBox="0 0 120 42" version="1.1">
<g id="surface1">
<path style=" stroke:none;fill-rule:nonzero;fill:rgb(100%,100%,100%);fill-opacity:1;" d="M 19.320312 20.746094 C 19.320312 16.761719 21.265625 13.308594 27.054688 13.308594 C 27.054688 17.304688 24.425781 20.746094 19.320312 20.746094 "/>
<path style=" stroke:none;fill-rule:nonzero;fill:rgb(100%,100%,100%);fill-opacity:1;" d="M 28.597656 31.21875 C 29.679688 31.21875 30.511719 31.0625 31.371094 30.746094 C 31.371094 27.589844 29.488281 25.335938 26.164062 23.710938 C 23.617188 22.4375 20.484375 21.773438 17.628906 21.773438 C 18.882812 18.011719 17.96875 13.34375 16.753906 10.78125 C 15.410156 13.46875 14.570312 18.070312 15.859375 21.8125 C 13.324219 22 11.3125 23.105469 10.460938 24.5625 C 10.394531 24.671875 10.265625 24.910156 10.34375 24.949219 C 10.402344 24.984375 10.5 24.882812 10.5625 24.828125 C 11.480469 23.980469 12.695312 23.566406 13.859375 23.566406 C 16.554688 23.566406 18.453125 25.800781 19.796875 27.144531 C 22.683594 30.03125 25.507812 31.222656 28.59375 31.21875 "/>
<path style=" stroke:none;fill-rule:nonzero;fill:rgb(100%,100%,100%);fill-opacity:1;" d="M 39.722656 16.398438 L 38.320312 17.117188 C 38.25 17.152344 38.179688 17.203125 38.109375 17.203125 C 38.054688 17.203125 38.003906 17.167969 37.96875 17.082031 C 37.652344 16.328125 37.195312 16.046875 36.722656 16.046875 L 35.5625 16.046875 C 34.878906 16.046875 34.300781 16.625 34.300781 17.308594 L 34.300781 22.503906 C 34.300781 23.1875 34.878906 23.769531 35.5625 23.769531 L 36.425781 23.769531 C 37.125 23.769531 37.671875 23.207031 37.671875 22.503906 L 37.671875 21.679688 C 37.671875 21.558594 37.617188 21.503906 37.496094 21.503906 L 35.84375 21.503906 C 35.722656 21.503906 35.671875 21.453125 35.671875 21.328125 L 35.671875 19.839844 C 35.671875 19.714844 35.722656 19.664062 35.84375 19.664062 L 39.511719 19.664062 C 39.636719 19.664062 39.6875 19.714844 39.6875 19.839844 L 39.6875 22.507812 C 39.6875 24.332031 38.40625 25.613281 36.425781 25.613281 L 35.5625 25.613281 C 33.5625 25.613281 32.300781 24.332031 32.300781 22.507812 L 32.300781 17.3125 C 32.300781 15.484375 33.5625 14.203125 35.5625 14.203125 L 36.722656 14.203125 C 38.179688 14.203125 38.96875 14.800781 39.496094 15.625 C 39.652344 15.890625 39.828125 16.171875 39.828125 16.277344 C 39.828125 16.328125 39.792969 16.363281 39.722656 16.398438 Z M 39.722656 16.398438 "/>
<path style=" stroke:none;fill-rule:nonzero;fill:rgb(100%,100%,100%);fill-opacity:1;" d="M 45.304688 25.433594 L 41.355469 25.433594 C 41.230469 25.433594 41.179688 25.382812 41.179688 25.261719 L 41.179688 14.554688 C 41.179688 14.433594 41.230469 14.378906 41.355469 14.378906 L 45.304688 14.378906 C 47.304688 14.378906 48.566406 15.660156 48.566406 17.644531 L 48.566406 17.820312 C 48.566406 18.46875 48.144531 19.222656 47.636719 19.714844 C 47.585938 19.75 47.566406 19.800781 47.566406 19.835938 C 47.566406 19.871094 47.585938 19.925781 47.636719 19.960938 C 48.144531 20.453125 48.566406 21.292969 48.566406 21.941406 L 48.566406 22.207031 C 48.566406 24.191406 47.304688 25.433594 45.304688 25.433594 Z M 46.566406 17.484375 C 46.566406 16.800781 45.988281 16.222656 45.304688 16.222656 L 43.371094 16.222656 C 43.25 16.222656 43.199219 16.273438 43.199219 16.398438 L 43.199219 18.730469 C 43.199219 18.851562 43.25 18.90625 43.371094 18.90625 L 45.304688 18.90625 C 45.988281 18.90625 46.566406 18.328125 46.566406 17.640625 Z M 46.566406 21.996094 C 46.566406 21.292969 46.003906 20.75 45.304688 20.75 L 43.371094 20.75 C 43.25 20.75 43.199219 20.804688 43.199219 20.925781 L 43.199219 23.417969 C 43.199219 23.539062 43.25 23.59375 43.371094 23.59375 L 45.304688 23.59375 C 45.988281 23.59375 46.566406 23.050781 46.566406 22.328125 Z M 46.566406 21.996094 "/>
<path style=" stroke:none;fill-rule:nonzero;fill:rgb(100%,100%,100%);fill-opacity:1;" d="M 52.078125 25.433594 L 50.410156 25.433594 C 50.289062 25.433594 50.238281 25.382812 50.238281 25.261719 L 50.238281 14.554688 C 50.238281 14.433594 50.289062 14.378906 50.410156 14.378906 L 52.078125 14.378906 C 52.203125 14.378906 52.253906 14.433594 52.253906 14.554688 L 52.253906 25.261719 C 52.253906 25.382812 52.203125 25.433594 52.078125 25.433594 Z M 52.078125 25.433594 "/>
<path style=" stroke:none;fill-rule:nonzero;fill:rgb(100%,100%,100%);fill-opacity:1;" d="M 60.835938 16.222656 L 56.660156 16.222656 C 56.535156 16.222656 56.484375 16.273438 56.484375 16.398438 L 56.484375 18.730469 C 56.484375 18.851562 56.535156 18.90625 56.660156 18.90625 L 60.082031 18.90625 C 60.203125 18.90625 60.257812 18.957031 60.257812 19.082031 L 60.257812 20.574219 C 60.257812 20.695312 60.203125 20.746094 60.082031 20.746094 L 56.660156 20.746094 C 56.535156 20.746094 56.484375 20.800781 56.484375 20.921875 L 56.484375 25.257812 C 56.484375 25.378906 56.429688 25.433594 56.308594 25.433594 L 54.640625 25.433594 C 54.519531 25.433594 54.46875 25.378906 54.46875 25.257812 L 54.46875 14.554688 C 54.46875 14.433594 54.519531 14.378906 54.640625 14.378906 L 60.835938 14.378906 C 60.960938 14.378906 61.011719 14.433594 61.011719 14.554688 L 61.011719 16.046875 C 61.011719 16.167969 60.960938 16.222656 60.835938 16.222656 Z M 60.835938 16.222656 "/>
<path style=" stroke:none;fill-rule:nonzero;fill:rgb(100%,100%,100%);fill-opacity:1;" d="M 64.300781 12.417969 L 64.417969 12.417969 L 64.417969 27.085938 L 64.300781 27.085938 Z M 64.300781 12.417969 "/>
<path style=" stroke:none;fill-rule:nonzero;fill:rgb(100%,100%,100%);fill-opacity:1;" d="M 69.3125 18.210938 L 69.128906 18.210938 C 68.484375 18.210938 68.070312 17.808594 68.070312 17.214844 L 68.070312 15.332031 C 68.070312 14.746094 68.484375 14.335938 69.128906 14.335938 L 69.421875 14.335938 C 69.746094 14.335938 69.972656 14.429688 70.136719 14.566406 C 70.238281 14.652344 70.308594 14.753906 70.371094 14.859375 C 70.386719 14.898438 70.375 14.925781 70.339844 14.945312 L 70.023438 15.097656 C 69.992188 15.117188 69.96875 15.105469 69.953125 15.074219 C 69.828125 14.859375 69.617188 14.746094 69.421875 14.746094 L 69.128906 14.746094 C 68.804688 14.746094 68.542969 15.003906 68.542969 15.332031 L 68.542969 17.21875 C 68.542969 17.535156 68.800781 17.800781 69.128906 17.800781 L 69.3125 17.800781 C 69.628906 17.800781 69.898438 17.539062 69.898438 17.21875 L 69.898438 16.78125 C 69.898438 16.738281 69.878906 16.722656 69.835938 16.722656 L 69.230469 16.722656 C 69.1875 16.722656 69.167969 16.703125 69.167969 16.660156 L 69.167969 16.371094 C 69.167969 16.328125 69.1875 16.308594 69.230469 16.308594 L 70.308594 16.308594 C 70.351562 16.308594 70.371094 16.328125 70.371094 16.371094 L 70.371094 17.214844 C 70.371094 17.800781 69.957031 18.210938 69.3125 18.210938 Z M 69.3125 18.210938 "/>
<path style=" stroke:none;fill-rule:nonzero;fill:rgb(100%,100%,100%);fill-opacity:1;" d="M 71.527344 18.152344 L 71.175781 18.152344 C 71.132812 18.152344 71.113281 18.132812 71.113281 18.09375 L 71.113281 14.453125 C 71.113281 14.410156 71.132812 14.394531 71.175781 14.394531 L 71.527344 14.394531 C 71.566406 14.394531 71.585938 14.410156 71.585938 14.453125 L 71.585938 18.09375 C 71.585938 18.132812 71.566406 18.152344 71.527344 18.152344 Z M 71.527344 18.152344 "/>
<path style=" stroke:none;fill-rule:nonzero;fill:rgb(100%,100%,100%);fill-opacity:1;" d="M 73.339844 18.210938 C 72.707031 18.210938 72.28125 17.792969 72.28125 17.222656 L 72.28125 16.421875 C 72.28125 15.855469 72.695312 15.433594 73.339844 15.433594 C 73.984375 15.433594 74.394531 15.851562 74.394531 16.421875 L 74.394531 17.222656 C 74.394531 17.789062 73.984375 18.210938 73.339844 18.210938 Z M 73.921875 16.390625 C 73.921875 16.085938 73.679688 15.835938 73.339844 15.835938 C 72.96875 15.835938 72.753906 16.101562 72.753906 16.421875 L 72.753906 17.25 C 72.753906 17.554688 73 17.804688 73.339844 17.804688 C 73.707031 17.804688 73.921875 17.542969 73.921875 17.222656 Z M 73.921875 16.390625 "/>
<path style=" stroke:none;fill-rule:nonzero;fill:rgb(100%,100%,100%);fill-opacity:1;" d="M 76.148438 18.152344 C 76 18.152344 75.78125 18.074219 75.605469 17.890625 C 75.558594 17.839844 75.507812 17.859375 75.507812 17.929688 L 75.507812 18.09375 C 75.507812 18.132812 75.488281 18.152344 75.445312 18.152344 L 75.152344 18.152344 C 75.113281 18.152344 75.09375 18.132812 75.09375 18.09375 L 75.09375 14.453125 C 75.09375 14.410156 75.113281 14.394531 75.152344 14.394531 L 75.503906 14.394531 C 75.546875 14.394531 75.566406 14.410156 75.566406 14.453125 L 75.566406 15.699219 C 75.566406 15.765625 75.625 15.789062 75.664062 15.742188 C 75.828125 15.5625 76.035156 15.492188 76.207031 15.492188 C 76.761719 15.492188 77.210938 15.894531 77.210938 16.480469 L 77.210938 17.15625 C 77.210938 17.738281 76.792969 18.152344 76.148438 18.152344 Z M 76.738281 16.480469 C 76.738281 16.164062 76.472656 15.898438 76.148438 15.898438 C 75.828125 15.898438 75.566406 16.160156 75.566406 16.480469 L 75.566406 17.15625 C 75.566406 17.472656 75.828125 17.742188 76.148438 17.742188 C 76.472656 17.742188 76.738281 17.476562 76.738281 17.15625 Z M 76.738281 16.480469 "/>
<path style=" stroke:none;fill-rule:nonzero;fill:rgb(100%,100%,100%);fill-opacity:1;" d="M 79.75 18.152344 L 79.460938 18.152344 C 79.417969 18.152344 79.402344 18.132812 79.402344 18.09375 L 79.402344 17.925781 C 79.402344 17.859375 79.339844 17.828125 79.292969 17.878906 C 79.121094 18.050781 78.910156 18.152344 78.773438 18.152344 L 78.542969 18.152344 C 78.113281 18.152344 77.765625 17.867188 77.765625 17.429688 L 77.765625 17.394531 C 77.765625 16.957031 78.113281 16.675781 78.542969 16.675781 L 79.277344 16.675781 C 79.316406 16.675781 79.335938 16.660156 79.335938 16.617188 L 79.335938 16.414062 C 79.335938 16.09375 79.074219 15.84375 78.746094 15.84375 C 78.546875 15.84375 78.351562 15.945312 78.21875 16.171875 C 78.203125 16.199219 78.171875 16.210938 78.136719 16.195312 L 77.832031 16.03125 C 77.792969 16.015625 77.78125 15.984375 77.808594 15.949219 C 77.871094 15.839844 77.949219 15.742188 78.050781 15.664062 C 78.21875 15.527344 78.445312 15.4375 78.742188 15.4375 C 79.386719 15.4375 79.804688 15.824219 79.804688 16.414062 L 79.804688 18.089844 C 79.804688 18.132812 79.789062 18.148438 79.746094 18.148438 Z M 79.335938 17.085938 C 79.335938 17.042969 79.320312 17.023438 79.277344 17.023438 L 78.542969 17.023438 C 78.371094 17.023438 78.230469 17.160156 78.230469 17.335938 L 78.230469 17.429688 C 78.230469 17.597656 78.367188 17.742188 78.542969 17.742188 L 78.773438 17.742188 C 79.03125 17.742188 79.265625 17.507812 79.335938 17.269531 Z M 79.335938 17.085938 "/>
<path style=" stroke:none;fill-rule:nonzero;fill:rgb(100%,100%,100%);fill-opacity:1;" d="M 80.976562 18.152344 L 80.625 18.152344 C 80.582031 18.152344 80.566406 18.132812 80.566406 18.09375 L 80.566406 14.453125 C 80.566406 14.410156 80.582031 14.394531 80.625 14.394531 L 80.976562 14.394531 C 81.019531 14.394531 81.039062 14.410156 81.039062 14.453125 L 81.039062 18.09375 C 81.039062 18.132812 81.019531 18.152344 80.976562 18.152344 Z M 80.976562 18.152344 "/>
<path style=" stroke:none;fill-rule:nonzero;fill:rgb(100%,100%,100%);fill-opacity:1;" d="M 84.164062 18.152344 L 82.988281 18.152344 C 82.945312 18.152344 82.929688 18.132812 82.929688 18.09375 L 82.929688 14.453125 C 82.929688 14.410156 82.945312 14.394531 82.988281 14.394531 L 84.164062 14.394531 C 84.808594 14.394531 85.21875 14.804688 85.21875 15.449219 L 85.21875 15.507812 C 85.21875 15.742188 85.035156 16.0625 84.816406 16.195312 C 84.761719 16.226562 84.761719 16.265625 84.808594 16.296875 C 85.011719 16.421875 85.21875 16.722656 85.21875 17.011719 L 85.21875 17.105469 C 85.21875 17.746094 84.808594 18.152344 84.164062 18.152344 Z M 84.753906 15.390625 C 84.753906 15.074219 84.492188 14.804688 84.164062 14.804688 L 83.453125 14.804688 C 83.410156 14.804688 83.394531 14.824219 83.394531 14.867188 L 83.394531 15.980469 C 83.394531 16.023438 83.410156 16.042969 83.453125 16.042969 L 84.164062 16.042969 C 84.488281 16.042969 84.753906 15.777344 84.753906 15.453125 Z M 84.753906 17.03125 C 84.753906 16.714844 84.492188 16.453125 84.164062 16.453125 L 83.453125 16.453125 C 83.410156 16.453125 83.394531 16.46875 83.394531 16.511719 L 83.394531 17.683594 C 83.394531 17.722656 83.410156 17.742188 83.453125 17.742188 L 84.164062 17.742188 C 84.488281 17.742188 84.753906 17.484375 84.753906 17.15625 Z M 84.753906 17.03125 "/>
<path style=" stroke:none;fill-rule:nonzero;fill:rgb(100%,100%,100%);fill-opacity:1;" d="M 86.152344 14.925781 C 85.984375 14.925781 85.859375 14.792969 85.859375 14.625 C 85.859375 14.457031 85.988281 14.332031 86.152344 14.332031 C 86.3125 14.332031 86.449219 14.457031 86.449219 14.625 C 86.449219 14.792969 86.320312 14.925781 86.152344 14.925781 Z M 86.332031 18.152344 L 85.980469 18.152344 C 85.9375 18.152344 85.917969 18.132812 85.917969 18.09375 L 85.917969 15.550781 C 85.917969 15.507812 85.9375 15.492188 85.980469 15.492188 L 86.332031 15.492188 C 86.371094 15.492188 86.390625 15.507812 86.390625 15.550781 L 86.390625 18.09375 C 86.390625 18.132812 86.371094 18.152344 86.332031 18.152344 Z M 86.332031 18.152344 "/>
<path style=" stroke:none;fill-rule:nonzero;fill:rgb(100%,100%,100%);fill-opacity:1;" d="M 88.144531 18.210938 C 87.511719 18.210938 87.085938 17.792969 87.085938 17.222656 L 87.085938 16.421875 C 87.085938 15.855469 87.5 15.433594 88.144531 15.433594 C 88.789062 15.433594 89.199219 15.851562 89.199219 16.421875 L 89.199219 17.222656 C 89.199219 17.789062 88.789062 18.210938 88.144531 18.210938 Z M 88.726562 16.390625 C 88.726562 16.085938 88.484375 15.835938 88.144531 15.835938 C 87.773438 15.835938 87.558594 16.101562 87.558594 16.421875 L 87.558594 17.25 C 87.558594 17.554688 87.804688 17.804688 88.144531 17.804688 C 88.511719 17.804688 88.726562 17.542969 88.726562 17.222656 Z M 88.726562 16.390625 "/>
<path style=" stroke:none;fill-rule:nonzero;fill:rgb(100%,100%,100%);fill-opacity:1;" d="M 91.859375 18.152344 L 91.574219 18.152344 C 91.53125 18.152344 91.515625 18.132812 91.515625 18.09375 L 91.515625 17.925781 C 91.515625 17.859375 91.453125 17.835938 91.40625 17.882812 C 91.226562 18.074219 91.011719 18.152344 90.863281 18.152344 C 90.21875 18.152344 89.808594 17.742188 89.808594 17.15625 L 89.808594 16.480469 C 89.808594 15.898438 90.242188 15.492188 90.804688 15.492188 C 90.984375 15.492188 91.191406 15.5625 91.347656 15.75 C 91.386719 15.804688 91.445312 15.777344 91.445312 15.707031 L 91.445312 14.453125 C 91.445312 14.410156 91.464844 14.394531 91.507812 14.394531 L 91.859375 14.394531 C 91.902344 14.394531 91.917969 14.410156 91.917969 14.453125 L 91.917969 18.09375 C 91.917969 18.136719 91.902344 18.152344 91.859375 18.152344 Z M 91.449219 16.480469 C 91.449219 16.164062 91.1875 15.898438 90.863281 15.898438 C 90.542969 15.898438 90.28125 16.160156 90.28125 16.480469 L 90.28125 17.15625 C 90.28125 17.472656 90.542969 17.742188 90.863281 17.742188 C 91.1875 17.742188 91.449219 17.476562 91.449219 17.15625 Z M 91.449219 16.480469 "/>
<path style=" stroke:none;fill-rule:nonzero;fill:rgb(100%,100%,100%);fill-opacity:1;" d="M 92.941406 14.925781 C 92.777344 14.925781 92.648438 14.792969 92.648438 14.625 C 92.648438 14.457031 92.78125 14.332031 92.941406 14.332031 C 93.105469 14.332031 93.242188 14.457031 93.242188 14.625 C 93.242188 14.792969 93.109375 14.925781 92.941406 14.925781 Z M 93.121094 18.152344 L 92.769531 18.152344 C 92.726562 18.152344 92.710938 18.132812 92.710938 18.09375 L 92.710938 15.550781 C 92.710938 15.507812 92.726562 15.492188 92.769531 15.492188 L 93.121094 15.492188 C 93.164062 15.492188 93.179688 15.507812 93.179688 15.550781 L 93.179688 18.09375 C 93.179688 18.132812 93.164062 18.152344 93.121094 18.152344 Z M 93.121094 18.152344 "/>
<path style=" stroke:none;fill-rule:nonzero;fill:rgb(100%,100%,100%);fill-opacity:1;" d="M 95.035156 18.117188 C 95.023438 18.140625 95.007812 18.152344 94.980469 18.152344 L 94.695312 18.152344 C 94.671875 18.152344 94.652344 18.140625 94.640625 18.117188 L 93.609375 15.574219 C 93.585938 15.519531 93.609375 15.492188 93.664062 15.492188 L 94.03125 15.492188 C 94.058594 15.492188 94.074219 15.503906 94.085938 15.527344 L 94.761719 17.234375 C 94.773438 17.261719 94.820312 17.410156 94.828125 17.464844 L 94.851562 17.464844 C 94.859375 17.410156 94.90625 17.261719 94.917969 17.234375 L 95.585938 15.527344 C 95.597656 15.503906 95.617188 15.492188 95.640625 15.492188 L 96.007812 15.492188 C 96.0625 15.492188 96.085938 15.519531 96.0625 15.574219 L 95.039062 18.117188 Z M 95.035156 18.117188 "/>
<path style=" stroke:none;fill-rule:nonzero;fill:rgb(100%,100%,100%);fill-opacity:1;" d="M 98.457031 16.875 L 96.933594 16.875 C 96.890625 16.875 96.875 16.894531 96.875 16.9375 L 96.875 17.214844 C 96.875 17.53125 97.136719 17.800781 97.457031 17.800781 C 97.660156 17.800781 97.863281 17.683594 97.988281 17.460938 C 98.007812 17.429688 98.035156 17.417969 98.066406 17.4375 L 98.382812 17.597656 C 98.417969 17.617188 98.425781 17.640625 98.40625 17.675781 C 98.351562 17.773438 98.292969 17.867188 98.210938 17.945312 C 98.050781 18.105469 97.816406 18.214844 97.460938 18.214844 C 96.816406 18.214844 96.402344 17.808594 96.402344 17.21875 L 96.402344 16.425781 C 96.402344 15.859375 96.816406 15.433594 97.460938 15.433594 C 98.105469 15.433594 98.515625 15.851562 98.515625 16.425781 L 98.515625 16.816406 C 98.515625 16.859375 98.496094 16.878906 98.457031 16.878906 Z M 98.042969 16.390625 C 98.042969 16.085938 97.796875 15.835938 97.460938 15.835938 C 97.089844 15.835938 96.875 16.101562 96.875 16.421875 L 96.875 16.488281 C 96.875 16.519531 96.90625 16.523438 96.933594 16.523438 L 97.984375 16.523438 C 98.027344 16.523438 98.042969 16.507812 98.042969 16.464844 Z M 98.042969 16.390625 "/>
<path style=" stroke:none;fill-rule:nonzero;fill:rgb(100%,100%,100%);fill-opacity:1;" d="M 100.378906 15.988281 C 100.347656 15.972656 100.304688 15.96875 100.269531 15.96875 C 99.941406 15.96875 99.683594 16.1875 99.683594 16.539062 L 99.683594 18.09375 C 99.683594 18.132812 99.667969 18.152344 99.625 18.152344 L 99.273438 18.152344 C 99.230469 18.152344 99.214844 18.132812 99.214844 18.09375 L 99.214844 15.550781 C 99.214844 15.507812 99.230469 15.492188 99.273438 15.492188 L 99.566406 15.492188 C 99.609375 15.492188 99.625 15.507812 99.625 15.550781 L 99.625 15.796875 C 99.625 15.863281 99.6875 15.890625 99.726562 15.835938 C 99.882812 15.617188 100.085938 15.492188 100.269531 15.492188 L 100.402344 15.492188 C 100.441406 15.492188 100.453125 15.515625 100.453125 15.558594 L 100.453125 15.933594 C 100.453125 15.980469 100.425781 16.003906 100.375 15.988281 Z M 100.378906 15.988281 "/>
<path style=" stroke:none;fill-rule:nonzero;fill:rgb(100%,100%,100%);fill-opacity:1;" d="M 101.816406 18.210938 L 101.636719 18.210938 C 101.304688 18.210938 101.082031 18.117188 100.925781 17.980469 C 100.824219 17.894531 100.753906 17.789062 100.699219 17.6875 C 100.679688 17.652344 100.691406 17.625 100.730469 17.609375 L 101.015625 17.464844 C 101.050781 17.449219 101.074219 17.460938 101.09375 17.488281 C 101.203125 17.6875 101.417969 17.824219 101.636719 17.824219 L 101.816406 17.824219 C 102.148438 17.824219 102.316406 17.632812 102.316406 17.410156 C 102.316406 17.121094 101.929688 17.078125 101.511719 16.996094 C 101.117188 16.917969 100.695312 16.742188 100.695312 16.242188 C 100.695312 15.699219 101.101562 15.429688 101.636719 15.429688 L 101.816406 15.429688 C 102.128906 15.429688 102.347656 15.515625 102.503906 15.640625 C 102.617188 15.730469 102.695312 15.835938 102.753906 15.945312 C 102.773438 15.980469 102.757812 16.011719 102.722656 16.027344 L 102.4375 16.171875 C 102.40625 16.1875 102.375 16.175781 102.359375 16.148438 C 102.238281 15.949219 102.046875 15.820312 101.816406 15.820312 L 101.636719 15.820312 C 101.292969 15.820312 101.152344 15.988281 101.152344 16.183594 C 101.152344 16.511719 101.542969 16.539062 101.945312 16.625 C 102.402344 16.722656 102.78125 16.871094 102.78125 17.351562 C 102.78125 17.835938 102.453125 18.210938 101.816406 18.210938 Z M 101.816406 18.210938 "/>
<path style=" stroke:none;fill-rule:nonzero;fill:rgb(100%,100%,100%);fill-opacity:1;" d="M 103.640625 14.925781 C 103.476562 14.925781 103.347656 14.792969 103.347656 14.625 C 103.347656 14.457031 103.480469 14.332031 103.640625 14.332031 C 103.804688 14.332031 103.941406 14.457031 103.941406 14.625 C 103.941406 14.792969 103.808594 14.925781 103.640625 14.925781 Z M 103.820312 18.152344 L 103.46875 18.152344 C 103.425781 18.152344 103.410156 18.132812 103.410156 18.09375 L 103.410156 15.550781 C 103.410156 15.507812 103.425781 15.492188 103.46875 15.492188 L 103.820312 15.492188 C 103.863281 15.492188 103.878906 15.507812 103.878906 15.550781 L 103.878906 18.09375 C 103.878906 18.132812 103.863281 18.152344 103.820312 18.152344 Z M 103.820312 18.152344 "/>
<path style=" stroke:none;fill-rule:nonzero;fill:rgb(100%,100%,100%);fill-opacity:1;" d="M 105.6875 18.207031 C 105.441406 18.183594 105.238281 18.097656 105.085938 17.980469 C 104.863281 17.800781 104.738281 17.539062 104.738281 17.214844 L 104.738281 15.957031 C 104.738281 15.914062 104.722656 15.898438 104.679688 15.898438 L 104.347656 15.898438 C 104.304688 15.898438 104.285156 15.878906 104.285156 15.835938 L 104.285156 15.675781 L 104.964844 14.960938 C 104.972656 14.953125 104.996094 14.941406 105.007812 14.941406 L 105.152344 14.941406 C 105.191406 14.941406 105.210938 14.960938 105.210938 15.003906 L 105.210938 15.433594 C 105.210938 15.472656 105.230469 15.492188 105.269531 15.492188 L 105.695312 15.492188 C 105.738281 15.492188 105.753906 15.511719 105.753906 15.550781 L 105.753906 15.839844 C 105.753906 15.878906 105.738281 15.898438 105.695312 15.898438 L 105.269531 15.898438 C 105.230469 15.898438 105.210938 15.917969 105.210938 15.957031 L 105.210938 17.21875 C 105.210938 17.492188 105.402344 17.730469 105.707031 17.789062 C 105.738281 17.796875 105.753906 17.8125 105.753906 17.851562 L 105.753906 18.148438 C 105.753906 18.191406 105.730469 18.214844 105.6875 18.207031 Z M 105.6875 18.207031 "/>
<path style=" stroke:none;fill-rule:nonzero;fill:rgb(100%,100%,100%);fill-opacity:1;" d="M 107.289062 19.554688 C 106.941406 19.554688 106.707031 19.445312 106.539062 19.292969 C 106.457031 19.207031 106.390625 19.117188 106.339844 19.023438 C 106.320312 18.988281 106.324219 18.957031 106.363281 18.9375 L 106.679688 18.785156 C 106.714844 18.765625 106.738281 18.777344 106.757812 18.808594 C 106.875 19.023438 107.085938 19.140625 107.289062 19.140625 C 107.609375 19.140625 107.878906 18.882812 107.878906 18.558594 L 107.878906 17.953125 C 107.878906 17.886719 107.8125 17.859375 107.769531 17.914062 C 107.640625 18.074219 107.464844 18.152344 107.285156 18.152344 C 106.640625 18.152344 106.230469 17.738281 106.230469 17.15625 L 106.230469 15.550781 C 106.230469 15.507812 106.246094 15.488281 106.289062 15.488281 L 106.640625 15.488281 C 106.683594 15.488281 106.703125 15.507812 106.703125 15.550781 L 106.703125 17.15625 C 106.703125 17.472656 106.964844 17.738281 107.285156 17.738281 C 107.648438 17.738281 107.875 17.433594 107.875 17.15625 L 107.875 15.550781 C 107.875 15.507812 107.894531 15.488281 107.9375 15.488281 L 108.28125 15.488281 C 108.324219 15.488281 108.34375 15.507812 108.34375 15.550781 L 108.34375 18.492188 C 108.34375 19.097656 107.992188 19.554688 107.285156 19.554688 Z M 107.289062 19.554688 "/>
<path style=" stroke:none;fill-rule:nonzero;fill:rgb(100%,100%,100%);fill-opacity:1;" d="M 68.566406 25.3125 L 68.21875 25.3125 C 68.179688 25.3125 68.160156 25.292969 68.160156 25.253906 L 68.160156 21.613281 C 68.160156 21.570312 68.179688 21.554688 68.21875 21.554688 L 68.566406 21.554688 C 68.609375 21.554688 68.625 21.570312 68.625 21.613281 L 68.625 25.253906 C 68.625 25.292969 68.609375 25.3125 68.566406 25.3125 Z M 68.566406 25.3125 "/>
<path style=" stroke:none;fill-rule:nonzero;fill:rgb(100%,100%,100%);fill-opacity:1;" d="M 71.53125 25.3125 L 71.179688 25.3125 C 71.136719 25.3125 71.121094 25.292969 71.121094 25.253906 L 71.121094 23.640625 C 71.121094 23.324219 70.851562 23.058594 70.527344 23.058594 C 70.207031 23.058594 69.945312 23.320312 69.945312 23.640625 L 69.945312 25.253906 C 69.945312 25.292969 69.925781 25.3125 69.882812 25.3125 L 69.53125 25.3125 C 69.492188 25.3125 69.472656 25.292969 69.472656 25.253906 L 69.472656 22.710938 C 69.472656 22.667969 69.492188 22.652344 69.53125 22.652344 L 69.824219 22.652344 C 69.867188 22.652344 69.886719 22.667969 69.886719 22.710938 L 69.886719 22.867188 C 69.886719 22.933594 69.945312 22.960938 69.988281 22.90625 C 70.148438 22.71875 70.34375 22.652344 70.527344 22.652344 C 71.171875 22.652344 71.589844 23.058594 71.589844 23.640625 L 71.589844 25.253906 C 71.589844 25.292969 71.574219 25.3125 71.53125 25.3125 Z M 71.53125 25.3125 "/>
<path style=" stroke:none;fill-rule:nonzero;fill:rgb(100%,100%,100%);fill-opacity:1;" d="M 73.667969 21.871094 C 73.65625 21.898438 73.636719 21.910156 73.609375 21.910156 C 73.554688 21.90625 73.523438 21.90625 73.484375 21.90625 C 73.160156 21.90625 72.898438 22.164062 72.898438 22.492188 L 72.898438 22.867188 C 72.898438 22.90625 72.917969 22.925781 72.957031 22.925781 L 73.386719 22.925781 C 73.429688 22.925781 73.449219 22.945312 73.449219 22.984375 L 73.449219 23.273438 C 73.449219 23.316406 73.429688 23.332031 73.386719 23.332031 L 72.957031 23.332031 C 72.917969 23.332031 72.898438 23.351562 72.898438 23.394531 L 72.898438 25.253906 C 72.898438 25.296875 72.878906 25.3125 72.839844 25.3125 L 72.492188 25.3125 C 72.453125 25.3125 72.433594 25.296875 72.433594 25.253906 L 72.433594 23.394531 C 72.433594 23.351562 72.414062 23.332031 72.375 23.332031 L 72.21875 23.332031 C 72.175781 23.332031 72.160156 23.316406 72.160156 23.273438 L 72.160156 22.984375 C 72.160156 22.945312 72.175781 22.925781 72.21875 22.925781 L 72.375 22.925781 C 72.414062 22.925781 72.433594 22.90625 72.433594 22.867188 L 72.433594 22.550781 C 72.433594 21.964844 72.898438 21.492188 73.484375 21.492188 C 73.5625 21.492188 73.625 21.5 73.714844 21.503906 C 73.765625 21.511719 73.78125 21.535156 73.765625 21.582031 Z M 73.667969 21.871094 "/>
<path style=" stroke:none;fill-rule:nonzero;fill:rgb(100%,100%,100%);fill-opacity:1;" d="M 74.871094 25.371094 C 74.242188 25.371094 73.816406 24.957031 73.816406 24.382812 L 73.816406 23.582031 C 73.816406 23.015625 74.226562 22.59375 74.871094 22.59375 C 75.515625 22.59375 75.929688 23.011719 75.929688 23.582031 L 75.929688 24.382812 C 75.929688 24.949219 75.515625 25.371094 74.871094 25.371094 Z M 75.457031 23.550781 C 75.457031 23.246094 75.210938 22.996094 74.871094 22.996094 C 74.503906 22.996094 74.289062 23.261719 74.289062 23.582031 L 74.289062 24.410156 C 74.289062 24.714844 74.53125 24.964844 74.871094 24.964844 C 75.242188 24.964844 75.457031 24.703125 75.457031 24.382812 Z M 75.457031 23.550781 "/>
<path style=" stroke:none;fill-rule:nonzero;fill:rgb(100%,100%,100%);fill-opacity:1;" d="M 77.792969 23.148438 C 77.761719 23.136719 77.71875 23.128906 77.683594 23.128906 C 77.355469 23.128906 77.097656 23.347656 77.097656 23.703125 L 77.097656 25.253906 C 77.097656 25.292969 77.082031 25.3125 77.039062 25.3125 L 76.6875 25.3125 C 76.644531 25.3125 76.628906 25.292969 76.628906 25.253906 L 76.628906 22.710938 C 76.628906 22.667969 76.644531 22.652344 76.6875 22.652344 L 76.980469 22.652344 C 77.023438 22.652344 77.039062 22.667969 77.039062 22.710938 L 77.039062 22.957031 C 77.039062 23.023438 77.101562 23.050781 77.140625 22.996094 C 77.296875 22.777344 77.5 22.652344 77.683594 22.652344 L 77.8125 22.652344 C 77.855469 22.652344 77.867188 22.675781 77.867188 22.71875 L 77.867188 23.09375 C 77.867188 23.140625 77.839844 23.164062 77.789062 23.148438 Z M 77.792969 23.148438 "/>
<path style=" stroke:none;fill-rule:nonzero;fill:rgb(100%,100%,100%);fill-opacity:1;" d="M 81.71875 25.3125 L 81.367188 25.3125 C 81.324219 25.3125 81.304688 25.292969 81.304688 25.253906 L 81.304688 23.640625 C 81.304688 23.320312 81.03125 23.058594 80.78125 23.058594 C 80.546875 23.058594 80.253906 23.3125 80.253906 23.640625 L 80.253906 25.253906 C 80.253906 25.292969 80.238281 25.3125 80.195312 25.3125 L 79.84375 25.3125 C 79.800781 25.3125 79.78125 25.292969 79.78125 25.253906 L 79.78125 23.640625 C 79.78125 23.320312 79.507812 23.058594 79.257812 23.058594 C 79.007812 23.058594 78.730469 23.3125 78.730469 23.640625 L 78.730469 25.253906 C 78.730469 25.292969 78.714844 25.3125 78.671875 25.3125 L 78.320312 25.3125 C 78.277344 25.3125 78.261719 25.292969 78.261719 25.253906 L 78.261719 22.710938 C 78.261719 22.667969 78.277344 22.652344 78.320312 22.652344 L 78.613281 22.652344 C 78.65625 22.652344 78.671875 22.667969 78.671875 22.710938 L 78.671875 22.867188 C 78.671875 22.933594 78.722656 22.960938 78.769531 22.914062 C 78.9375 22.730469 79.140625 22.652344 79.316406 22.652344 C 79.53125 22.652344 79.800781 22.742188 79.972656 22.960938 C 80.003906 23.003906 80.039062 22.996094 80.070312 22.960938 C 80.261719 22.746094 80.511719 22.652344 80.78125 22.652344 C 81.347656 22.652344 81.777344 23.058594 81.777344 23.640625 L 81.777344 25.253906 C 81.777344 25.292969 81.757812 25.3125 81.714844 25.3125 Z M 81.71875 25.3125 "/>
<path style=" stroke:none;fill-rule:nonzero;fill:rgb(100%,100%,100%);fill-opacity:1;" d="M 84.375 25.3125 L 84.085938 25.3125 C 84.042969 25.3125 84.027344 25.292969 84.027344 25.253906 L 84.027344 25.085938 C 84.027344 25.019531 83.964844 24.988281 83.917969 25.039062 C 83.746094 25.210938 83.535156 25.3125 83.398438 25.3125 L 83.164062 25.3125 C 82.738281 25.3125 82.390625 25.027344 82.390625 24.589844 L 82.390625 24.554688 C 82.390625 24.117188 82.738281 23.839844 83.164062 23.839844 L 83.902344 23.839844 C 83.941406 23.839844 83.960938 23.820312 83.960938 23.777344 L 83.960938 23.574219 C 83.960938 23.253906 83.699219 23.003906 83.371094 23.003906 C 83.171875 23.003906 82.976562 23.105469 82.84375 23.332031 C 82.828125 23.359375 82.796875 23.371094 82.761719 23.355469 L 82.457031 23.195312 C 82.417969 23.175781 82.40625 23.144531 82.429688 23.109375 C 82.496094 23 82.574219 22.902344 82.675781 22.824219 C 82.84375 22.6875 83.070312 22.597656 83.367188 22.597656 C 84.011719 22.597656 84.429688 22.984375 84.429688 23.574219 L 84.429688 25.25 C 84.429688 25.292969 84.414062 25.308594 84.371094 25.308594 Z M 83.960938 24.246094 C 83.960938 24.203125 83.945312 24.183594 83.902344 24.183594 L 83.167969 24.183594 C 82.996094 24.183594 82.855469 24.320312 82.855469 24.496094 L 82.855469 24.589844 C 82.855469 24.757812 82.992188 24.902344 83.167969 24.902344 L 83.398438 24.902344 C 83.65625 24.902344 83.890625 24.667969 83.960938 24.429688 Z M 83.960938 24.246094 "/>
<path style=" stroke:none;fill-rule:nonzero;fill:rgb(100%,100%,100%);fill-opacity:1;" d="M 86.210938 25.367188 C 85.964844 25.34375 85.761719 25.257812 85.609375 25.140625 C 85.386719 24.960938 85.261719 24.699219 85.261719 24.375 L 85.261719 23.117188 C 85.261719 23.074219 85.246094 23.058594 85.203125 23.058594 L 84.867188 23.058594 C 84.828125 23.058594 84.808594 23.039062 84.808594 22.996094 L 84.808594 22.835938 L 85.488281 22.121094 C 85.496094 22.113281 85.519531 22.101562 85.53125 22.101562 L 85.675781 22.101562 C 85.714844 22.101562 85.734375 22.121094 85.734375 22.164062 L 85.734375 22.59375 C 85.734375 22.632812 85.753906 22.652344 85.792969 22.652344 L 86.21875 22.652344 C 86.257812 22.652344 86.277344 22.671875 86.277344 22.710938 L 86.277344 23 C 86.277344 23.042969 86.257812 23.058594 86.21875 23.058594 L 85.792969 23.058594 C 85.753906 23.058594 85.734375 23.078125 85.734375 23.121094 L 85.734375 24.378906 C 85.734375 24.652344 85.925781 24.890625 86.230469 24.949219 C 86.257812 24.957031 86.277344 24.972656 86.277344 25.011719 L 86.277344 25.308594 C 86.277344 25.351562 86.253906 25.375 86.210938 25.371094 Z M 86.210938 25.367188 "/>
<path style=" stroke:none;fill-rule:nonzero;fill:rgb(100%,100%,100%);fill-opacity:1;" d="M 87.015625 22.085938 C 86.851562 22.085938 86.722656 21.953125 86.722656 21.785156 C 86.722656 21.617188 86.855469 21.492188 87.015625 21.492188 C 87.179688 21.492188 87.316406 21.617188 87.316406 21.785156 C 87.316406 21.953125 87.183594 22.085938 87.015625 22.085938 Z M 87.195312 25.3125 L 86.84375 25.3125 C 86.800781 25.3125 86.785156 25.292969 86.785156 25.253906 L 86.785156 22.710938 C 86.785156 22.667969 86.800781 22.652344 86.84375 22.652344 L 87.195312 22.652344 C 87.238281 22.652344 87.253906 22.667969 87.253906 22.710938 L 87.253906 25.253906 C 87.253906 25.292969 87.238281 25.3125 87.195312 25.3125 Z M 87.195312 25.3125 "/>
<path style=" stroke:none;fill-rule:nonzero;fill:rgb(100%,100%,100%);fill-opacity:1;" d="M 89.007812 25.371094 C 88.375 25.371094 87.953125 24.957031 87.953125 24.382812 L 87.953125 23.582031 C 87.953125 23.015625 88.363281 22.59375 89.007812 22.59375 C 89.652344 22.59375 90.066406 23.011719 90.066406 23.582031 L 90.066406 24.382812 C 90.066406 24.949219 89.652344 25.371094 89.007812 25.371094 Z M 89.59375 23.550781 C 89.59375 23.246094 89.347656 22.996094 89.007812 22.996094 C 88.640625 22.996094 88.425781 23.261719 88.425781 23.582031 L 88.425781 24.410156 C 88.425781 24.714844 88.667969 24.964844 89.007812 24.964844 C 89.378906 24.964844 89.59375 24.703125 89.59375 24.382812 Z M 89.59375 23.550781 "/>
<path style=" stroke:none;fill-rule:nonzero;fill:rgb(100%,100%,100%);fill-opacity:1;" d="M 92.824219 25.3125 L 92.472656 25.3125 C 92.429688 25.3125 92.410156 25.292969 92.410156 25.253906 L 92.410156 23.640625 C 92.410156 23.324219 92.140625 23.058594 91.820312 23.058594 C 91.5 23.058594 91.234375 23.320312 91.234375 23.640625 L 91.234375 25.253906 C 91.234375 25.292969 91.21875 25.3125 91.175781 25.3125 L 90.824219 25.3125 C 90.78125 25.3125 90.765625 25.292969 90.765625 25.253906 L 90.765625 22.710938 C 90.765625 22.667969 90.78125 22.652344 90.824219 22.652344 L 91.117188 22.652344 C 91.160156 22.652344 91.175781 22.667969 91.175781 22.710938 L 91.175781 22.867188 C 91.175781 22.933594 91.238281 22.960938 91.277344 22.90625 C 91.4375 22.71875 91.636719 22.652344 91.820312 22.652344 C 92.464844 22.652344 92.882812 23.058594 92.882812 23.640625 L 92.882812 25.253906 C 92.882812 25.292969 92.863281 25.3125 92.824219 25.3125 Z M 92.824219 25.3125 "/>
<path style=" stroke:none;fill-rule:nonzero;fill:rgb(100%,100%,100%);fill-opacity:1;" d="M 96.796875 21.964844 L 95.269531 21.964844 C 95.226562 21.964844 95.210938 21.984375 95.210938 22.027344 L 95.210938 23.140625 C 95.210938 23.183594 95.226562 23.203125 95.269531 23.203125 L 96.523438 23.203125 C 96.5625 23.203125 96.582031 23.21875 96.582031 23.261719 L 96.582031 23.554688 C 96.582031 23.597656 96.5625 23.613281 96.523438 23.613281 L 95.269531 23.613281 C 95.226562 23.613281 95.210938 23.632812 95.210938 23.675781 L 95.210938 25.257812 C 95.210938 25.296875 95.191406 25.316406 95.148438 25.316406 L 94.804688 25.316406 C 94.761719 25.316406 94.742188 25.296875 94.742188 25.257812 L 94.742188 21.617188 C 94.742188 21.574219 94.761719 21.558594 94.804688 21.558594 L 96.796875 21.558594 C 96.839844 21.558594 96.855469 21.574219 96.855469 21.617188 L 96.855469 21.910156 C 96.855469 21.953125 96.839844 21.96875 96.796875 21.96875 Z M 96.796875 21.964844 "/>
<path style=" stroke:none;fill-rule:nonzero;fill:rgb(100%,100%,100%);fill-opacity:1;" d="M 98.914062 25.3125 L 98.628906 25.3125 C 98.585938 25.3125 98.566406 25.292969 98.566406 25.253906 L 98.566406 25.085938 C 98.566406 25.019531 98.507812 24.988281 98.460938 25.039062 C 98.289062 25.210938 98.078125 25.3125 97.941406 25.3125 L 97.707031 25.3125 C 97.277344 25.3125 96.933594 25.027344 96.933594 24.589844 L 96.933594 24.554688 C 96.933594 24.117188 97.277344 23.839844 97.707031 23.839844 L 98.441406 23.839844 C 98.484375 23.839844 98.503906 23.820312 98.503906 23.777344 L 98.503906 23.574219 C 98.503906 23.253906 98.238281 23.003906 97.910156 23.003906 C 97.714844 23.003906 97.519531 23.105469 97.386719 23.332031 C 97.367188 23.359375 97.339844 23.371094 97.300781 23.355469 L 96.996094 23.195312 C 96.960938 23.175781 96.949219 23.144531 96.972656 23.109375 C 97.039062 23 97.117188 22.902344 97.21875 22.824219 C 97.386719 22.6875 97.613281 22.597656 97.910156 22.597656 C 98.554688 22.597656 98.972656 22.984375 98.972656 23.574219 L 98.972656 25.25 C 98.972656 25.292969 98.953125 25.308594 98.914062 25.308594 Z M 98.503906 24.246094 C 98.503906 24.203125 98.484375 24.183594 98.441406 24.183594 L 97.707031 24.183594 C 97.535156 24.183594 97.398438 24.320312 97.398438 24.496094 L 97.398438 24.589844 C 97.398438 24.757812 97.535156 24.902344 97.707031 24.902344 L 97.941406 24.902344 C 98.199219 24.902344 98.429688 24.667969 98.503906 24.429688 Z M 98.503906 24.246094 "/>
<path style=" stroke:none;fill-rule:nonzero;fill:rgb(100%,100%,100%);fill-opacity:1;" d="M 101.421875 25.132812 C 101.261719 25.277344 101.035156 25.371094 100.699219 25.371094 C 100.054688 25.371094 99.644531 24.941406 99.644531 24.375 L 99.644531 23.582031 C 99.644531 23.015625 100.054688 22.59375 100.699219 22.59375 C 101.03125 22.59375 101.257812 22.691406 101.421875 22.828125 C 101.519531 22.910156 101.589844 23.003906 101.648438 23.113281 C 101.667969 23.148438 101.65625 23.179688 101.617188 23.195312 L 101.300781 23.359375 C 101.273438 23.375 101.246094 23.363281 101.230469 23.335938 C 101.105469 23.125 100.902344 23 100.699219 23 C 100.328125 23 100.113281 23.261719 100.113281 23.585938 L 100.113281 24.378906 C 100.113281 24.699219 100.328125 24.960938 100.699219 24.960938 C 100.902344 24.960938 101.105469 24.84375 101.230469 24.621094 C 101.246094 24.59375 101.277344 24.582031 101.308594 24.597656 L 101.625 24.757812 C 101.660156 24.777344 101.667969 24.800781 101.648438 24.835938 C 101.589844 24.945312 101.519531 25.046875 101.421875 25.136719 Z M 101.421875 25.132812 "/>
<path style=" stroke:none;fill-rule:nonzero;fill:rgb(100%,100%,100%);fill-opacity:1;" d="M 102.460938 22.085938 C 102.292969 22.085938 102.167969 21.953125 102.167969 21.785156 C 102.167969 21.617188 102.296875 21.492188 102.460938 21.492188 C 102.621094 21.492188 102.757812 21.617188 102.757812 21.785156 C 102.757812 21.953125 102.628906 22.085938 102.460938 22.085938 Z M 102.636719 25.3125 L 102.285156 25.3125 C 102.246094 25.3125 102.226562 25.292969 102.226562 25.253906 L 102.226562 22.710938 C 102.226562 22.667969 102.246094 22.652344 102.285156 22.652344 L 102.636719 22.652344 C 102.679688 22.652344 102.699219 22.667969 102.699219 22.710938 L 102.699219 25.253906 C 102.699219 25.292969 102.679688 25.3125 102.636719 25.3125 Z M 102.636719 25.3125 "/>
<path style=" stroke:none;fill-rule:nonzero;fill:rgb(100%,100%,100%);fill-opacity:1;" d="M 103.898438 25.3125 L 103.546875 25.3125 C 103.503906 25.3125 103.488281 25.292969 103.488281 25.253906 L 103.488281 21.613281 C 103.488281 21.570312 103.503906 21.554688 103.546875 21.554688 L 103.898438 21.554688 C 103.941406 21.554688 103.957031 21.570312 103.957031 21.613281 L 103.957031 25.253906 C 103.957031 25.292969 103.941406 25.3125 103.898438 25.3125 Z M 103.898438 25.3125 "/>
<path style=" stroke:none;fill-rule:nonzero;fill:rgb(100%,100%,100%);fill-opacity:1;" d="M 104.976562 22.085938 C 104.8125 22.085938 104.6875 21.953125 104.6875 21.785156 C 104.6875 21.617188 104.816406 21.492188 104.976562 21.492188 C 105.140625 21.492188 105.277344 21.617188 105.277344 21.785156 C 105.277344 21.953125 105.144531 22.085938 104.976562 22.085938 Z M 105.15625 25.3125 L 104.804688 25.3125 C 104.761719 25.3125 104.746094 25.292969 104.746094 25.253906 L 104.746094 22.710938 C 104.746094 22.667969 104.761719 22.652344 104.804688 22.652344 L 105.15625 22.652344 C 105.199219 22.652344 105.21875 22.667969 105.21875 22.710938 L 105.21875 25.253906 C 105.21875 25.292969 105.199219 25.3125 105.15625 25.3125 Z M 105.15625 25.3125 "/>
<path style=" stroke:none;fill-rule:nonzero;fill:rgb(100%,100%,100%);fill-opacity:1;" d="M 107.023438 25.367188 C 106.78125 25.34375 106.578125 25.257812 106.421875 25.140625 C 106.203125 24.960938 106.078125 24.699219 106.078125 24.375 L 106.078125 23.117188 C 106.078125 23.074219 106.058594 23.058594 106.015625 23.058594 L 105.683594 23.058594 C 105.640625 23.058594 105.621094 23.039062 105.621094 22.996094 L 105.621094 22.835938 L 106.304688 22.121094 C 106.308594 22.113281 106.332031 22.101562 106.34375 22.101562 L 106.488281 22.101562 C 106.53125 22.101562 106.546875 22.121094 106.546875 22.164062 L 106.546875 22.59375 C 106.546875 22.632812 106.566406 22.652344 106.609375 22.652344 L 107.03125 22.652344 C 107.074219 22.652344 107.089844 22.671875 107.089844 22.710938 L 107.089844 23 C 107.089844 23.042969 107.074219 23.058594 107.03125 23.058594 L 106.609375 23.058594 C 106.566406 23.058594 106.546875 23.078125 106.546875 23.121094 L 106.546875 24.378906 C 106.546875 24.652344 106.738281 24.890625 107.042969 24.949219 C 107.074219 24.957031 107.089844 24.972656 107.089844 25.011719 L 107.089844 25.308594 C 107.089844 25.351562 107.066406 25.375 107.027344 25.371094 Z M 107.023438 25.367188 "/>
<path style=" stroke:none;fill-rule:nonzero;fill:rgb(100%,100%,100%);fill-opacity:1;" d="M 108.625 26.714844 C 108.277344 26.714844 108.046875 26.609375 107.878906 26.453125 C 107.792969 26.367188 107.730469 26.28125 107.675781 26.183594 C 107.65625 26.148438 107.664062 26.117188 107.699219 26.101562 L 108.015625 25.945312 C 108.050781 25.925781 108.074219 25.9375 108.09375 25.96875 C 108.210938 26.183594 108.421875 26.304688 108.625 26.304688 C 108.945312 26.304688 109.214844 26.046875 109.214844 25.71875 L 109.214844 25.117188 C 109.214844 25.050781 109.148438 25.019531 109.105469 25.074219 C 108.976562 25.234375 108.800781 25.3125 108.621094 25.3125 C 107.976562 25.3125 107.566406 24.902344 107.566406 24.316406 L 107.566406 22.710938 C 107.566406 22.667969 107.585938 22.652344 107.625 22.652344 L 107.976562 22.652344 C 108.019531 22.652344 108.039062 22.667969 108.039062 22.710938 L 108.039062 24.316406 C 108.039062 24.632812 108.300781 24.902344 108.621094 24.902344 C 108.988281 24.902344 109.214844 24.597656 109.214844 24.316406 L 109.214844 22.710938 C 109.214844 22.667969 109.230469 22.652344 109.273438 22.652344 L 109.617188 22.652344 C 109.660156 22.652344 109.679688 22.667969 109.679688 22.710938 L 109.679688 25.652344 C 109.679688 26.261719 109.328125 26.714844 108.621094 26.714844 Z M 108.625 26.714844 "/>
</g>
</svg>
