<svg xmlns="http://www.w3.org/2000/svg" xmlns:xlink="http://www.w3.org/1999/xlink" version="1.1" width="395.686pt" height="77.875pt" viewBox="0 0 395.686 77.875">
<defs>
<clipPath id="clip_0">
<path transform="matrix(1,0,0,-1,0,77.875)" d="M0 77.875H395.686V0H0Z"/>
</clipPath>
</defs>
<g clip-path="url(#clip_0)">
<path transform="matrix(1,0,0,-1,1.1239,74.8064)" d="M0 0C2.345 5.743 3.233 9.058 3.233 16.902V41.974C3.233 49.9 2.345 53.135 0 58.878V59.04H21.025V58.878C18.683 53.135 17.71 49.738 17.71 41.974V30.976H40.924V41.974C40.924 49.82 40.034 53.135 37.609 58.878V59.04H58.634V58.878C56.371 53.135 55.401 49.738 55.401 41.974V16.902C55.401 9.14 56.371 5.743 58.634 0V-.162H37.609V0C40.034 5.743 40.924 9.058 40.924 16.902V29.116H17.71V16.902C17.71 9.14 18.683 5.743 21.025 0V-.162H0Z" fill="#ffffff"/>
<path transform="matrix(1,0,0,-1,77.3012,76.182)" d="M0 0C-6.954 0-10.918 5.096-10.918 12.86V31.217C-10.918 36.072-12.129 38.094-13.99 40.359V40.601H2.024V12.781C2.024 9.461 3.559 6.712 7.2 6.712 9.868 6.712 11.808 8.411 13.104 10.677V31.299C13.104 36.151 11.972 38.255 10.03 40.439V40.601H26.124V18.038C26.124 8.978 27.255 6.794 30.168 3.882V3.721L13.507 .082V8.896L13.266 8.978C11.485 5.581 7.118 0 0 0" fill="#ffffff"/>
<path transform="matrix(1,0,0,-1,129.0572,74.9682)" d="M0 0H-16.904V.162C-15.693 4.124-14.962 7.362-14.962 14.233V23.371C-14.962 29.359-16.176 32.836-19.006 36.234V36.395L-2.266 41.086V32.998L-1.942 32.918C.082 36.475 4.365 40.68 11.08 40.68 16.902 40.68 21.025 37.77 22.159 32.998L22.403 32.918C24.505 36.475 28.79 40.68 35.505 40.68 42.379 40.68 46.826 36.475 46.826 29.762V14.313C46.826 7.441 47.475 4.124 48.768 .162V0H31.943V.162C33.239 4.124 33.886 7.603 33.886 14.154V29.198C33.886 32.267 32.593 34.615 29.193 34.615 26.445 34.615 23.94 32.998 22.403 30.409V14.313C22.403 7.441 23.047 4.124 24.425 .162V0H7.523V.162C8.896 4.124 9.461 7.603 9.461 14.154V29.198C9.461 32.267 8.167 34.615 4.773 34.615 2.022 34.615-.485 32.998-1.942 30.409V14.233C-1.942 7.523-1.375 4.124 0 .162Z" fill="#ffffff"/>
<path transform="matrix(1,0,0,-1,190.6769,72.1389)" d="M0 0-4.855-3.072H-5.66V42.463C-5.66 48.527-6.792 51.924-9.704 55.321V55.481L7.359 60.174V31.461H7.603C9.948 34.617 14.154 37.853 20.217 37.853 29.762 37.853 35.99 29.765 35.99 17.631 35.99 5.419 28.954-4.041 13.992-4.041 7.603-4.041 2.912-2.184 0 0M22.483 15.126C22.401 26.529 19.25 31.299 13.263 31.299 10.756 31.299 8.734 30.491 7.359 29.521V10.03C7.359 .808 11.241-2.587 14.882-2.587 20.379-2.587 22.483 4.613 22.483 15.126" fill="#ffffff"/>
<path transform="matrix(1,0,0,-1,230.866,55.3155)" d="M0 0C0 11.241 9.866 21.025 21.757 21.025 33.642 21.025 43.511 11.241 43.511 0 43.511-11.241 33.642-20.866 21.757-20.866 9.866-20.866 0-11.241 0 0M30.086 0C30.086 11.485 27.497 19.491 21.757 19.491 15.934 19.491 13.425 11.485 13.425 0 13.425-11.485 16.014-19.329 21.757-19.329 27.497-19.329 30.086-11.485 30.086 0" fill="#ffffff"/>
<path transform="matrix(1,0,0,-1,278.7393,74.8064)" d="M0 0C1.134 3.233 1.942 6.066 1.942 12.537V45.13C1.942 51.193 .808 54.593-2.104 57.988V58.149L14.964 62.84V12.537C14.964 6.228 15.77 3.233 16.904 0V-.162H0Z" fill="#ffffff"/>
<path transform="matrix(1,0,0,-1,315.1314,76.1812)" d="M0 0C-9.217 0-15.203 7.847-15.203 19.088-15.203 31.299-7.924 41.894 6.066 41.894 8.896 41.894 11.323 41.489 13.266 40.842V46.423C13.266 52.568 12.134 55.966 9.219 59.363V59.522L26.288 64.215V18.195C26.288 9.137 27.74 6.792 30.411 3.88V3.718L13.507 .08V8.008H13.348C10.918 3.88 6.471 0 0 0M13.266 9.622V31.864C12.537 37.686 10.274 40.439 6.797 40.439 1.701 40.439-1.776 34.694-1.776 22.321-1.776 11.726 1.134 6.63 6.389 6.63 9.058 6.63 11.729 7.847 13.266 9.622" fill="#ffffff"/>
<path transform="matrix(1,0,0,-1,379.8253,68.5791)" d="M0 0C0 3.721 3.072 6.792 6.792 6.792 10.515 6.792 13.587 3.721 13.587 0 13.587-3.721 10.515-6.792 6.792-6.792 3.072-6.792 0-3.721 0 0" fill="#ffffff"/>
<path transform="matrix(1,0,0,-1,375.7859,69.6303)" d="M0 0C-.082-.082-1.781-1.373-4.611-1.373-7.847-1.373-10.433 .162-10.433 5.014V23.94H-.808V25.718H-10.433V43.175H-11.323L-23.455 35.58V23.94 15.572 4.69C-23.455-3.397-18.844-6.551-12.296-6.551-5.904-6.551-1.539-3.397 .241-.244Z" fill="#ffffff"/>
<path transform="matrix(1,0,0,-1,159.6836,31.052102)" d="M0 0H5.023L13.21 22.835H7.798L5.163 11.98H4.917L2.246 22.835H-3.233L2.529 6.814ZM-4.44 6.145C-4.582 7.552-4.756 9.627-4.756 11.275V29.335H-9.885C-9.639 26.628-9.569 24.558-9.569 22.835V6.145ZM-19.476 19.322C-17.575 19.322-16.489 17.635-16.489 14.472-16.489 11.311-17.575 9.589-19.476 9.589-21.407 9.589-22.459 11.311-22.459 14.472-22.459 17.635-21.407 19.322-19.476 19.322M-19.476 23.185C-24.251 23.185-27.132 19.708-27.132 14.472-27.132 9.273-24.218 5.796-19.476 5.796-14.767 5.796-11.813 9.309-11.813 14.472-11.813 19.708-14.733 23.185-19.476 23.185M-35.428 25.19C-33.671 25.19-32.513 23.889-32.513 21.851-32.513 19.848-33.635 18.478-35.428 18.478H-38.202V25.19ZM-38.202 6.145V14.299H-35.039C-30.578 14.299-27.733 17.283-27.733 21.921-27.733 26.348-30.65 29.335-35.252 29.335H-43.298V6.145ZM-50.744 6.145C-50.884 7.552-51.06 9.627-51.06 11.275V29.335H-56.19C-55.944 26.628-55.874 24.558-55.874 22.835V6.145ZM-62.919 14.931V12.296C-62.919 10.293-64.041 9.099-65.518 9.099-66.536 9.099-67.275 9.767-67.275 10.785-67.275 11.874-66.5 12.542-65.132 13.104-64.041 13.56-63.443 14.089-62.919 14.931M-63.021 8.537H-62.707L-62.531 6.145H-57.824C-58.103 7.412-58.246 8.853-58.246 10.995V17.353C-58.246 20.975-60.635 23.185-64.461 23.185-66.712 23.185-69.101 22.415-70.718 21.008V16.933C-68.961 18.796-66.992 19.778-65.272 19.778-63.865 19.778-63.021 19.112-63.021 18.021-63.021 16.863-63.938 16.091-66.324 15.563-69.839 14.754-71.842 12.998-71.842 10.293-71.842 7.624-69.873 5.796-67.308 5.796-65.552 5.796-64.005 6.708-63.021 8.537M-79.858 5.796C-77.259 5.796-75.008 6.604-73.287 8.148V13.21C-74.94 11.241-77.01 10.151-79.155 10.151-82.772 10.151-85.373 13.138-85.373 17.739-85.373 22.273-82.878 25.33-79.225 25.33-77.047 25.33-75.008 24.239-73.321 22.273V27.333C-75.08 28.879-77.293 29.685-79.858 29.685-86.215 29.685-90.537 24.838-90.537 17.739-90.537 10.609-86.215 5.796-79.858 5.796" fill="#ffd140"/>
</g>
</svg>
