<svg xmlns="http://www.w3.org/2000/svg" xmlns:xlink="http://www.w3.org/1999/xlink" version="1.1" width="576pt" height="576pt" viewBox="0 0 576 576">
<defs>
<clipPath id="clip_0">
<path transform="matrix(1,0,0,-1,0,576)" d="M0 576H576V0H0Z"/>
</clipPath>
</defs>
<g id="layer_1" data-name="">
<g clip-path="url(#clip_0)">
<path transform="matrix(1,0,0,-1,225.33,428.1349)" d="M0 0C-27.091 10.085-54.128 20.15-81.287 30.261V33.283C-81.287 108.581-81.279 183.879-81.33 259.177-81.331 261.253-80.755 262.56-79.037 263.8-60.943 276.864-42.899 289.997-24.888 303.176-23.349 304.302-22.022 304.516-20.25 303.892-16.75 302.661-13.176 301.639-9.198 300.395-9.198 305.008-9.283 309.186-9.136 313.356-9.101 314.345-8.551 315.66-7.791 316.227 4.436 325.364 16.737 334.404 28.772 343.283 31.637 342.326 34.269 341.365 36.949 340.564 92.558 323.945 148.168 307.329 203.801 290.793 205.973 290.148 206.672 289.297 206.67 287.007 206.604 208.582 206.615 130.158 206.614 51.733 206.614 47.519 204.441 45.983 200.556 47.444 195.003 49.533 195.003 49.533 195.003 55.598 195.003 80.608 195.003 105.618 195.003 130.628 195.003 178.936 194.982 227.244 195.06 275.552 195.064 278.113 194.364 279.181 191.824 279.935 138.155 295.883 84.514 311.928 30.889 328.026 28.675 328.69 27.114 328.389 25.297 326.996 19.133 322.272 12.827 317.736 6.583 313.117 5.969 312.663 5.411 312.134 4.502 311.364 10.467 309.561 16.065 307.85 21.673 306.175 70.879 291.483 120.085 276.787 169.307 262.147 171.06 261.626 171.648 260.905 171.644 259.034 171.58 225.807 171.606 192.579 171.556 159.351 171.554 158.412 171.218 157.094 170.555 156.593 162.584 150.577 154.521 144.683 146.11 138.482V242.686C137.519 245.267 129.171 247.788 120.816 250.283 74.346 264.161 27.871 278.021-18.585 291.945-20.378 292.482-21.644 292.363-23.191 291.206-34.916 282.438-46.722 273.779-58.498 265.079-59.045 264.675-59.539 264.2-60.349 263.509-50.712 260.638-41.435 257.881-32.162 255.11 13.198 241.557 58.55 227.979 103.933 214.504 106.237 213.82 106.898 212.901 106.896 210.514 106.824 128.159 106.836 45.805 106.836-36.55V-39.766C99.949-37.205 93.367-34.761 86.786-32.31 63.728-23.724 40.688-15.088 17.589-6.613 14.97-5.652 13.938-4.578 13.919-1.616 13.826 12.93 13.423 27.474 13.138 42.019 13.129 42.448 13.214 42.878 13.297 43.743 20.657 40.9 27.826 38.131 35.582 35.135 30.844 42.296 25.377 48.394 23.959 57.329 33.424 53.811 42.166 50.562 51.539 47.078 42.673 57.172 33.555 66.445 31.876 80.717 37.134 78.916 41.864 77.296 47.117 75.497 40.446 88.341 32.829 100.205 29.05 114.72 32.569 113.29 35.284 112.187 38.541 110.863 33.108 120.085 28.28 128.938 26.654 139.535 30.189 138.521 33.311 137.626 36.901 136.596 29.472 150.535 21.62 163.772 17.557 179.328 20.622 178.574 23.075 177.971 25.44 177.39 19.202 189.769 13.035 202.007 7.09 213.805 3.181 204.37-3.839 195.929-10.485 186.849-7.859 186.103-5.448 185.418-2.663 184.628-5.857 172.665-13.353 163.443-20.703 153.709-17.543 152.736-14.542 151.812-11.352 150.829-12.415 142.626-16.761 136.336-22.206 130.28-19.405 129.668-16.896 129.119-13.767 128.435-14.422 126.371-14.665 124.162-15.739 122.487-19.341 116.868-23.222 111.428-27.039 105.948-27.844 104.791-28.827 103.757-29.948 102.4-26.038 101.026-22.399 99.611-18.671 98.491-16.666 97.889-16.274 96.839-16.598 94.965-17.556 89.435-20.851 85.608-25.466 82.839-27.94 81.355-30.641 80.251-33.508 78.843-27.298 76.507-21.228 74.223-15.157 71.941-14.238 71.595-13.314 71.265-12.395 70.923-9.071 69.687-8.364 68.191-10.35 65.226-11.76 63.12-13.752 61.373-15.63 59.623-16.722 58.605-18.103 57.897-19.683 56.826-18.57 56.315-17.686 55.855-16.764 55.494-11.368 53.38-5.937 51.352-.588 49.126 .215 48.791 1.186 47.563 1.175 46.762 .95 31.502 .591 16.244 .25 .985 .245 .73 .125 .478 0 0" fill="#ffffff"/>
<path transform="matrix(1,0,0,-1,371.2915,397.9235)" d="M0 0V39.083C0 47.831-.037 56.579 .051 65.326 .061 66.333 .47 67.725 1.196 68.276 8.873 74.098 16.65 79.787 24.408 85.501 24.666 85.691 25.015 85.759 25.636 86.011V83.181C25.636 53.991 25.637 24.801 25.636-4.389 25.636-8.434 24.844-9.001 21.035-7.627 14.081-5.118 7.135-2.588 0 0" fill="#ffffff"/>
</g>
</g>
</svg>
